<?xml version="1.0" encoding="utf-8"?><!DOCTYPE svg PUBLIC "-//W3C//DTD SVG 1.1//EN" "http://www.w3.org/Graphics/SVG/1.1/DTD/svg11.dtd"><svg width="100" height="100">
 
<path fill="#D72027" d="M51.4 45.6l-1.2-2.1-2.2 1-1.2-2.1-2.2 1-1.2-2.1-2.2 1-1.2-2.1-2.2 1-1.2-2.1-2.2 1L29.8 55l5.6 1.7c.4-1.2 1.5-2.1 2.8-2.1 1.6 0 3 1.3 3 3v.1c0 .3 0 .5-.1.8l5.7 1.7 4.6-14.6z"/><path fill="#FFF" d="M34.7 54.2c-.3-.1-.5-.3-.5-.6v-7.3c0-.3.3-.6.6-.6h5.7c1.1.2 2 1.2 2 2.3v5.6c0 .2-.1.3-.2.4-.1.1-.3.2-.4.2h-.1c-.3-.1-.5-.3-.5-.6V48c0-.6-.4-1-1-1.1H39v6.7c0 .2-.1.3-.2.4-.1.1-.3.2-.4.2h-.1c-.3-.1-.5-.3-.5-.6v-6.7h-2.3v6.7c0 .2-.1.3-.2.4-.1.1-.3.2-.4.2h-.2M43.5 57.4c-.3-.1-.5-.3-.5-.6 0-.2.1-.3.2-.4.1-.1.3-.2.4-.2.5 0 1-.3 1.1-.8l.6-2.1-2.1-6.9c-.1-.3.1-.7.4-.8h.3c.2 0 .4.2.5.4l1.5 5.1 1.5-5.1c.1-.3.4-.5.7-.4.3.1.5.4.4.8l-2.1 7-.7 2.3c-.2.5-.5.9-.9 1.2-.4.3-.9.5-1.4.5h.1M5.5 54.1c-.3-.1-.5-.3-.5-.6v-11c0-.2.1-.3.2-.5.1-.1.3-.2.5-.2h.1c.2.2.5.4.5.7v3.1h1.6c1.2.2 2 1.2 2 2.4v3.5c0 1.4-1.1 2.5-2.5 2.5H5.6c0 .1 0 .1-.1.1m.8-1.3h1.2c.7 0 1.2-.5 1.2-1.2v-3.5c0-.6-.4-1.1-1-1.2H6.3v5.9zM13.6 54.1c-1.2-.2-2-1.2-2-2.4V48c0-.7.3-1.3.7-1.7.5-.5 1.1-.7 1.7-.7h.4c1.2.2 2 1.2 2 2.4v3.7c0 .7-.3 1.3-.7 1.7-.5.5-1.1.7-1.7.7-.1.1-.3.1-.4 0m.6-7.2H14c-.7 0-1.2.5-1.2 1.2v3.7c0 .6.4 1.1 1 1.2h.2c.7 0 1.2-.5 1.2-1.2v-3.7c0-.6-.4-1.1-1-1.2M20.1 54.1c-1.2-.2-2-1.2-2-2.4V48c0-1.4 1.1-2.5 2.5-2.5h.4c1.2.2 2 1.2 2 2.4v3.7c0 .7-.3 1.3-.7 1.7-.5.5-1.1.7-1.7.7-.2.2-.3.2-.5.1m.7-7.2h-.2c-.7 0-1.2.5-1.2 1.2v3.7c0 .6.4 1.1 1 1.2h.2c.3 0 .6-.1.8-.3.2-.2.4-.5.4-.9V48c0-.5-.4-1-1-1.1M25.2 54.2c-.3-.1-.5-.3-.5-.6v-11c0-.2.1-.3.2-.5.1-.1.3-.2.5-.2h.1c.3.1.5.3.5.6V49l2.9-3.3c.1-.2.4-.2.6-.2.1 0 .2.1.3.1.3.2.3.6 0 .9l-2.2 2.4 2.3 4.2c.1.1.1.3.1.5s-.2.3-.3.4c-.1.1-.3.1-.4.1-.2 0-.3-.1-.4-.3L26.8 50l-.9 1v2.6c0 .2-.1.3-.2.5-.1.1-.3.2-.4.2l-.1-.1M53.1 54.2c-.7-.1-1.3-.5-1.6-1.2-.1-.1-.1-.3-.1-.5s.1-.3.3-.4c.1-.1.3-.1.4-.1.2 0 .3.1.4.3.2.3.4.5.8.5.4.1.7 0 .9-.3.2-.2.4-.6.3-.9 0-.3-.2-.6-.5-.8l-1.7-1.2c-.6-.4-.9-1-1-1.7 0-.7.2-1.4.7-1.8.5-.5 1.2-.7 1.9-.6.7.1 1.3.5 1.6 1.1.1.1.1.3.1.5s-.1.3-.3.4c-.1.1-.3.1-.4.1-.2 0-.4-.1-.4-.3-.1-.3-.4-.4-.7-.5-.3-.1-.6 0-.9.3-.2.2-.3.5-.3.8 0 .3.2.6.4.8l1.7 1.2c.6.4 1 1.1 1 1.8.1.7-.2 1.4-.8 1.9-.3.4-1 .7-1.8.6zM58 54.2c-.3-.1-.5-.3-.5-.6v-11c0-.2.1-.3.2-.5.1-.1.3-.2.4-.2h.1c.3.1.5.3.5.6v3.1h1.6c1.2.2 2 1.2 2 2.4v5.4c0 .4-.3.6-.6.6h-.1c-.3-.1-.5-.3-.5-.6V48c0-.6-.4-1.1-1-1.2h-1.4v6.6c0 .4-.3.6-.6.6 0 .2-.1.2-.1.2M66 54.1c-1.2-.2-2-1.2-2-2.4V48c0-1.4 1.1-2.5 2.5-2.5h.4c1.2.2 2 1.2 2 2.4v3.7c0 .7-.3 1.3-.7 1.7-.5.5-1.1.7-1.7.7-.2.2-.3.2-.5.1m.7-7.2h-.2c-.3 0-.6.1-.8.3-.2.2-.3.5-.3.8v3.7c0 .6.4 1.1 1 1.2h.2c.3 0 .6-.1.8-.3.2-.2.4-.5.4-.9V48c-.1-.5-.5-1-1.1-1.1M78.7 46.4c0-.2 0-.3-.1-.5-.1-.1-.2-.2-.4-.3h-.1c-.3 0-.5.2-.6.5 0 0-.7 2.8-1.2 4.9-.5-2.1-1.2-4.8-1.2-4.9-.1-.2-.2-.4-.5-.5h-.1c-.3 0-.5.2-.6.5 0 0-.7 2.8-1.2 4.9-.5-2.1-1.2-4.8-1.2-4.9-.1-.2-.3-.4-.5-.5h-.3c-.3.1-.5.4-.5.7l1.8 7.3c.1.2.3.4.5.5h.1c.3 0 .5-.2.6-.5 0 0 .7-2.8 1.2-4.9.5 2.1 1.2 4.9 1.2 4.9.1.2.3.4.5.5h.1c.3 0 .5-.2.6-.5l1.9-7.2z"/>
</svg> 